<svg xmlns="http://www.w3.org/2000/svg" width="96" height="96" viewBox="0 0 96 96" fill="none" role="img" aria-label="Біологія">
<circle cx="48" cy="46" r="36" fill="#E7F4EB"/>
<ellipse cx="48" cy="82" rx="31" ry="4" fill="#D4E6DA"/>
<g stroke="#18374F" stroke-width="2.8" stroke-linecap="round" stroke-linejoin="round">
<path d="M41 33c28-7 44 30 22 42" stroke="#429C90" stroke-width="10"/>
<path d="m47 19 12 9-20 29-12-9Z" fill="#B0DCD0"/>
<path d="m46 18 5-6 13 9-5 7Z" fill="#487C83"/>
<path d="m26 48 13 9-4 6-13-9Z" fill="#487C83"/>
<path d="M26 67h33" stroke="#E7B259" stroke-width="6"/>
<path d="M46 68v10m-20 1h44l5 5H20Z" fill="#73B9AA"/>
<circle cx="57" cy="48" r="7" fill="#FFCE75"/>
<circle cx="57" cy="48" r="2" fill="#FFF2CE" stroke="none"/>
<path d="M17 34c-3-10 4-20 17-19 2 12-4 20-15 20Z" fill="#71B77E"/>
<path d="m15 41 14-20" stroke="#386B58" stroke-width="2"/>
</g>
</svg>
