<svg xmlns="http://www.w3.org/2000/svg" width="96" height="96" viewBox="0 0 96 96" fill="none" role="img" aria-label="Інформатика">
<circle cx="48" cy="45" r="36" fill="#E6F4F7"/>
<ellipse cx="49" cy="81" rx="37" ry="5" fill="#D6E3E9"/>
<g stroke="#18374F" stroke-width="2.8" stroke-linecap="round" stroke-linejoin="round">
<rect x="17" y="18" width="62" height="48" rx="6" fill="#2B6F88"/>
<rect x="22" y="23" width="52" height="36" rx="3" fill="#E0F7F4"/>
<path d="m35 34-8 7 8 7m24-14 8 7-8 7m-7-18-8 23" stroke="#178A89" stroke-width="4"/>
<path d="M17 66h62l8 10a3 3 0 0 1-3 4H12a3 3 0 0 1-3-4z" fill="#83BCC9"/>
<path d="M37 67h22l4 7H33z" fill="#D7EEF0"/>
<path d="m70 49 1 21 5-5 7 3-13-19Z" fill="#FFBE60"/>
</g>
<circle cx="81" cy="17" r="4" fill="#FFBE60"/>
</svg>
