<svg xmlns="http://www.w3.org/2000/svg" width="64" height="64" viewBox="0 0 64 64" role="img" aria-labelledby="title">
<title id="title">Фізична культура</title>
<g stroke="#17324D" stroke-width="2.2" stroke-linecap="round" stroke-linejoin="round">
<circle cx="42" cy="21" r="17" fill="#FFC95C"/>
<path d="M36 13l10-1 5 9-7 8-10-4z" fill="#FFFFFF"/>
<path d="M36 13l-4-6m14 5 5-6m0 15 8 1M44 29l2 9m-12-13-7 4" fill="none"/>
<path d="M10 33l11 3 8 9 21 6c4 1 7 3 7 8H7V45z" fill="#57B9EC"/>
<path d="M7 54h48M22 41l-4 5m9-1-4 5M9 33l2-5m-5 8H3" fill="none"/>
</g>
</svg>
